<?xml version="1.0" standalone="no"?>
<!DOCTYPE svg PUBLIC "-//W3C//DTD SVG 20010904//EN"
 "http://www.w3.org/TR/2001/REC-SVG-20010904/DTD/svg10.dtd">
<svg version="1.0" xmlns="http://www.w3.org/2000/svg"
 width="1174.000000pt" height="492.000000pt" viewBox="0 0 1174.000000 492.000000"
 preserveAspectRatio="xMidYMid meet">

<g transform="translate(0.000000,492.000000) scale(0.100000,-0.100000)"
fill="#240090" stroke="none">
<path d="M8730 4100 c-91 -15 -198 -33 -237 -40 l-73 -12 0 -517 0 -518 -84
34 c-157 63 -224 76 -396 77 -167 1 -252 -13 -372 -60 -373 -146 -589 -535
-588 -1059 1 -356 100 -624 305 -830 165 -165 363 -254 636 -286 232 -27 669
18 947 97 l52 15 0 1565 c0 1245 -3 1564 -12 1563 -7 -1 -87 -14 -178 -29z
m-529 -1425 c36 -9 99 -33 140 -53 l74 -37 3 -622 2 -623 -22 -5 c-120 -27
-358 -32 -463 -10 -235 49 -391 238 -436 528 -17 105 -6 342 20 441 58 220
170 346 349 391 73 19 243 14 333 -10z"/>
<path d="M6103 4002 c-131 -47 -203 -152 -203 -296 0 -111 64 -212 168 -263
49 -24 69 -28 142 -28 72 1 93 5 136 28 62 31 107 75 137 131 18 34 22 57 22
141 0 111 -15 153 -76 214 -79 80 -220 111 -326 73z"/>
<path d="M490 2360 l0 -1430 260 0 260 0 0 1430 0 1430 -260 0 -260 0 0 -1430z"/>
<path d="M4595 3129 c-104 -14 -239 -55 -319 -97 -88 -46 -213 -165 -250 -240
-41 -81 -66 -192 -66 -291 1 -182 54 -315 170 -425 102 -96 198 -148 465 -251
139 -53 260 -112 310 -151 106 -80 122 -229 34 -308 -63 -58 -125 -71 -334
-71 -206 0 -273 11 -477 79 -124 40 -129 41 -133 21 -3 -11 -22 -104 -44 -208
l-38 -187 109 -35 c212 -67 405 -91 653 -82 318 12 517 79 661 222 114 113
154 221 154 410 0 228 -69 372 -235 490 -77 56 -270 149 -434 209 -234 87
-336 156 -360 243 -15 54 -13 92 8 139 23 50 55 76 129 106 51 20 74 22 222
23 175 0 257 -12 407 -60 l73 -23 5 22 c57 240 84 371 78 377 -14 11 -164 48
-288 69 -138 24 -394 34 -500 19z"/>
<path d="M10295 3129 c-143 -20 -326 -96 -440 -182 -165 -124 -307 -336 -364
-547 -67 -245 -67 -555 0 -800 23 -86 92 -237 139 -305 195 -283 542 -429 980
-411 215 8 461 54 597 111 31 13 35 18 30 43 -3 15 -17 106 -33 203 l-27 175
-83 -28 c-126 -42 -275 -69 -414 -75 -265 -12 -441 39 -565 162 -88 87 -137
192 -158 338 l-6 37 709 0 c636 0 708 2 714 16 10 26 7 286 -5 396 -49 452
-276 749 -645 843 -134 34 -296 43 -429 24z m318 -439 c149 -57 267 -245 267
-425 l0 -45 -460 0 c-425 0 -460 1 -460 17 0 38 34 153 66 219 56 118 180 223
300 253 65 17 221 6 287 -19z"/>
<path d="M2281 3119 c-166 -13 -473 -66 -578 -100 l-33 -11 0 -1039 0 -1039
250 0 250 0 0 869 0 869 23 5 c62 15 273 29 361 24 112 -6 198 -31 253 -73 79
-60 134 -189 153 -359 5 -50 10 -364 10 -712 l0 -623 251 0 251 0 -5 708 c-4
665 -5 713 -25 817 -40 210 -98 331 -212 445 -191 192 -470 256 -949 219z"/>
<path d="M5960 2005 l0 -1075 250 0 250 0 0 1075 0 1075 -250 0 -250 0 0
-1075z"/>
</g>
</svg>
