<?xml version="1.0" standalone="no"?>
<!DOCTYPE svg PUBLIC "-//W3C//DTD SVG 20010904//EN"
 "http://www.w3.org/TR/2001/REC-SVG-20010904/DTD/svg10.dtd">
<svg version="1.0" xmlns="http://www.w3.org/2000/svg"
 width="1590.000000pt" height="451.000000pt" viewBox="0 0 1590.000000 451.000000"
 preserveAspectRatio="xMidYMid meet">

<g transform="translate(0.000000,451.000000) scale(0.100000,-0.100000)"
fill="#190061" stroke="none">
<path d="M12210 4495 c-19 -23 -91 -62 -157 -84 -89 -30 -224 -49 -399 -57
l-154 -7 0 -120 0 -120 138 7 c75 3 170 9 211 13 71 6 74 5 66 -13 -5 -10 -11
-276 -13 -590 l-4 -572 -72 34 c-79 36 -200 73 -329 101 -116 25 -455 25 -580
0 -561 -114 -995 -536 -1142 -1113 -45 -180 -58 -306 -52 -549 3 -172 9 -244
26 -328 119 -588 499 -988 1021 -1073 152 -25 392 -15 542 24 200 52 385 152
526 286 39 38 72 65 72 60 1 -20 20 -163 31 -226 l11 -68 419 0 419 0 0 121 0
122 -162 -7 c-90 -4 -185 -10 -212 -13 l-48 -6 6 29 c21 99 26 547 26 2272 l0
1892 -89 0 c-65 0 -92 -4 -101 -15z m-851 -1615 c193 -20 382 -84 500 -170
l43 -32 -5 -1006 -5 -1007 -68 -71 c-123 -126 -310 -239 -464 -280 -87 -23
-271 -24 -360 -1 -213 56 -393 212 -508 442 -117 234 -172 507 -172 848 0 261
21 411 86 606 118 355 353 591 654 655 67 14 96 18 176 24 12 1 67 -3 123 -8z"/>
<path d="M8562 4334 c-56 -21 -147 -105 -177 -164 -87 -172 -28 -383 134 -478
41 -24 56 -27 136 -27 75 0 97 4 133 23 59 32 123 97 153 157 21 44 24 63 24
160 0 101 -2 114 -28 162 -61 117 -144 174 -261 179 -47 3 -86 -2 -114 -12z"/>
<path d="M0 4059 l0 -132 58 6 c31 4 126 9 211 13 l154 7 -8 -64 c-4 -35 -10
-795 -14 -1689 -6 -1296 -10 -1633 -20 -1665 -32 -98 -86 -165 -160 -198 -37
-16 -167 -45 -208 -47 -10 0 -13 -26 -13 -95 l0 -95 655 0 655 0 0 129 0 128
-67 -4 c-100 -6 -338 -20 -338 -19 0 1 3 752 6 1671 6 1831 2 1722 66 1836 49
88 132 134 268 148 l60 6 3 98 3 97 -656 0 -655 0 0 -131z"/>
<path d="M3436 3094 c-217 -39 -485 -165 -681 -318 l-60 -47 -3 28 c-2 15 -8
93 -15 173 l-12 145 -83 3 c-78 3 -84 1 -120 -27 -55 -43 -108 -68 -194 -90
-85 -22 -262 -41 -380 -41 l-78 0 0 -121 0 -122 148 7 c81 4 174 9 206 13 l59
6 -7 -29 c-10 -38 -15 -310 -26 -1289 -5 -496 -13 -819 -20 -850 -16 -77 -63
-169 -102 -198 -46 -36 -110 -57 -169 -57 l-49 0 0 -90 0 -90 595 0 595 0 0
120 0 121 -107 -6 c-60 -3 -143 -8 -187 -11 -78 -5 -78 -5 -71 18 11 35 24
837 24 1503 l0 600 88 85 c137 131 318 228 498 267 96 21 263 20 345 -1 270
-72 422 -315 469 -748 14 -123 14 -1309 1 -1436 -23 -219 -105 -320 -267 -330
l-63 -4 0 -89 0 -89 595 0 595 0 0 120 0 121 -107 -6 c-60 -3 -143 -8 -185
-10 l-78 -5 8 32 c4 18 7 427 7 908 0 858 0 877 -22 995 -32 177 -67 287 -129
414 -49 100 -67 126 -143 201 -125 127 -254 191 -450 225 -105 19 -320 18
-425 -1z"/>
<path d="M6177 3094 c-350 -54 -620 -282 -707 -596 -79 -287 -23 -551 161
-752 109 -120 306 -232 654 -376 434 -178 553 -237 665 -331 116 -97 170 -204
170 -338 0 -124 -39 -212 -128 -293 -209 -187 -602 -227 -887 -88 -183 88
-332 241 -416 426 -35 76 -69 211 -69 272 l0 42 -95 0 -94 0 4 -47 c3 -27 9
-203 15 -393 5 -190 13 -393 16 -452 l6 -108 120 0 121 0 -7 68 c-4 37 -9 82
-12 100 l-6 32 123 -64 c141 -73 285 -126 433 -158 87 -19 132 -22 321 -22
241 -1 295 8 474 73 265 97 459 295 526 536 26 92 32 324 11 417 -42 189 -168
348 -381 484 -83 52 -390 200 -570 274 -202 83 -398 178 -476 230 -87 59 -181
155 -211 215 -133 264 17 549 332 632 45 12 104 17 190 17 141 0 217 -16 319
-65 81 -40 199 -151 262 -247 77 -117 142 -307 156 -454 l6 -68 93 0 94 0 0
510 0 510 -121 0 -121 0 4 -105 c1 -58 2 -105 1 -105 -2 0 -33 21 -70 46 -136
93 -274 148 -452 178 -115 19 -330 20 -454 0z"/>
<path d="M14485 3103 c-503 -63 -932 -397 -1146 -892 -51 -120 -85 -237 -111
-386 -18 -105 -20 -147 -15 -335 4 -179 10 -236 31 -336 97 -457 358 -809 745
-1003 102 -52 286 -108 411 -127 152 -22 392 -15 535 16 376 80 698 274 898
541 31 42 57 81 57 87 0 6 -30 35 -66 65 l-66 55 -48 -57 c-134 -162 -415
-326 -665 -390 -119 -31 -257 -42 -372 -31 -132 13 -201 32 -312 86 -170 84
-321 256 -406 467 -80 195 -131 469 -142 755 l-6 172 109 0 c60 0 460 7 889
15 429 8 842 15 918 15 l137 0 0 73 c0 274 -101 593 -249 788 -173 228 -429
372 -738 418 -67 10 -320 13 -388 4z m355 -235 c184 -43 335 -199 409 -423 35
-108 61 -254 61 -347 l0 -68 -740 0 -740 0 0 29 c0 47 55 249 92 336 120 283
344 450 653 485 79 9 197 4 265 -12z"/>
<path d="M8713 3041 c-96 -70 -256 -106 -520 -118 l-153 -6 0 -120 0 -120 148
7 c81 3 173 9 205 13 l59 6 -6 -64 c-4 -35 -10 -512 -15 -1059 -6 -677 -12
-1011 -20 -1045 -18 -79 -65 -169 -103 -198 -46 -36 -110 -57 -169 -57 l-49 0
0 -90 0 -90 595 0 595 0 0 120 0 121 -107 -6 c-60 -3 -143 -8 -187 -11 -78 -5
-79 -5 -70 18 5 13 10 634 11 1381 l4 1357 -83 -1 c-79 -1 -85 -2 -135 -38z"/>
</g>
</svg>
